<?xml version="1.0" encoding="utf-8"?>
<!-- Generator: Adobe Illustrator 26.0.0, SVG Export Plug-In . SVG Version: 6.00 Build 0)  -->
<svg version="1.1" id="Layer_1" xmlns="http://www.w3.org/2000/svg" xmlns:xlink="http://www.w3.org/1999/xlink" x="0px" y="0px"
	 viewBox="0 0 62.8 20" style="enable-background:new 0 0 62.8 20;" xml:space="preserve">

<path id="Path_155"  d="M8.9,20c5.6,0,8.9-3.2,8.9-9V0h-4.5v10.8c0,3.7-1.6,5.3-4.4,5.3c-2.8,0-4.4-1.5-4.4-5.3V0H0v11
	C0,16.8,3.3,20,8.9,20z M41.3,20L34,9.7L40.9,0H36l-4.4,6.5L27,0h-5.2l6.9,9.8L21.5,20h5.2l4.7-6.9l4.7,6.9H41.3z M53.9,20
	c5.6,0,8.9-3.2,8.9-9V0h-4.5v10.8c0,3.7-1.6,5.3-4.4,5.3c-2.8,0-4.4-1.5-4.4-5.3V0H45v11C45,16.8,48.3,20,53.9,20z"/>
</svg>
